<svg width="178" height="32" viewBox="0 0 178 32" fill="none" xmlns="http://www.w3.org/2000/svg">
<path fill-rule="evenodd" clip-rule="evenodd" d="M114.983 7.60908H117.66V23.7678H114.983V7.60908ZM105.216 7.2435C103.48 7.2435 101.888 7.82843 100.586 8.92517V7.60908H97.9086V23.7678H100.586V14.6283C100.586 11.9961 102.684 9.9488 105.216 9.9488C107.748 9.9488 109.846 12.0692 109.846 14.6283V23.7678H112.523V14.6283C112.523 10.5337 109.267 7.2435 105.216 7.2435ZM92.5547 7.53596H95.2317V23.1098C95.1593 27.7161 91.4695 31.445 86.9115 31.5181C83.294 31.5913 79.9659 29.1784 78.953 25.6688H81.847C82.7876 27.643 84.741 28.886 86.9115 28.8128C90.0225 28.7397 92.4824 26.1806 92.6271 23.0366V21.7205C89.2267 24.8646 83.9452 24.7183 80.8341 21.2818C77.7231 17.8454 77.8678 12.5079 81.2682 9.36387C84.4516 6.3661 89.4437 6.3661 92.6271 9.36387L92.5547 7.53596ZM92.5547 15.6519C92.5547 12.5079 90.0225 9.87569 86.9115 9.87569C83.8005 9.87569 81.1959 12.4348 81.1959 15.5788C81.1959 18.7228 83.7281 21.355 86.9115 21.355C90.0225 21.355 92.5547 18.7959 92.5547 15.6519ZM51.3156 9.87569C53.486 9.87569 55.5118 11.1918 56.4524 13.1659H59.274C57.9717 8.70583 53.269 6.14675 48.8557 7.53596C44.4424 8.85206 41.9101 13.6046 43.2848 18.0647C44.6594 22.5248 49.2898 25.0839 53.7031 23.6947C56.38 22.8904 58.4782 20.77 59.274 18.0647H56.4524C55.1501 20.9163 51.7497 22.1592 48.928 20.8432C46.1064 19.5271 44.8765 16.0906 46.1787 13.239C47.1193 11.1918 49.0727 9.87569 51.3156 9.87569ZM77.289 15.6519C77.289 20.3313 73.5268 24.0603 68.9688 24.0603C64.3385 24.0603 60.6486 20.2582 60.6486 15.6519C60.6486 11.0456 64.2661 7.2435 68.8965 7.2435C73.5268 7.2435 77.289 10.9724 77.289 15.6519ZM74.6121 15.6519C74.6121 12.5079 72.0798 9.87569 68.9688 9.87569C65.8578 9.87569 63.2532 12.4348 63.2532 15.5788C63.2532 18.7228 65.7854 21.355 68.8965 21.355C72.0798 21.355 74.6121 18.7959 74.6121 15.6519ZM161.793 7.2435C160.057 7.2435 158.465 7.82843 157.163 8.92517V7.60908H154.486V23.7678H157.163V14.6283C157.163 11.9961 159.261 9.87569 161.793 9.87569C164.398 9.87569 166.496 11.9961 166.496 14.5551V23.6947H169.173V14.6283C169.1 10.5337 165.845 7.2435 161.793 7.2435ZM149.132 7.60908H151.809V23.7678H149.132V21.8668C145.732 25.0108 140.45 24.8646 137.339 21.4281C134.228 17.9916 134.373 12.6541 137.773 9.51011C139.292 8.04778 141.318 7.2435 143.416 7.2435C145.515 7.2435 147.54 8.04778 149.132 9.51011V7.60908ZM149.132 15.6519C149.132 12.5079 146.6 9.9488 143.416 9.9488C140.305 9.9488 137.773 12.5079 137.773 15.725C137.773 18.869 140.305 21.4281 143.416 21.4281C146.6 21.355 149.132 18.7959 149.132 15.6519ZM177.999 10.2413V7.53596H174.02V3.14898H171.343V18.3572C171.343 21.355 173.731 23.7678 176.697 23.7678H177.999V21.0625H176.697C175.25 21.0625 174.02 19.8195 174.02 18.3572V10.2413H177.999ZM116.285 1.75977C115.272 1.75977 114.549 2.56405 114.549 3.51456C114.549 4.53819 115.345 5.26935 116.285 5.26935C117.298 5.26935 118.022 4.46507 118.022 3.51456C118.094 2.56405 117.298 1.75977 116.285 1.75977C116.358 1.75977 116.358 1.75977 116.285 1.75977ZM133.649 7.60908H120.337V10.3144H130.176L120.337 21.0625V23.7678H133.649V21.0625H123.737L133.577 10.3144L133.649 7.60908Z" fill="#000048"/>
<path d="M16.0666 16H0L11.0377 31.9999L22.4796 25.1255L16.0666 16Z" fill="url(#paint0_linear_1603_2950)"/>
<path d="M37.6655 16L11.0371 31.9999H26.8399L37.6655 16Z" fill="url(#paint1_linear_1603_2950)"/>
<path d="M0 16.0001H16.0661L22.4972 6.88669L11.0371 0L0 16.0001Z" fill="url(#paint2_linear_1603_2950)"/>
<path d="M37.6655 16.0001L11.0371 0H26.8399L37.6655 16.0001Z" fill="url(#paint3_linear_1603_2950)"/>
<defs>
<linearGradient id="paint0_linear_1603_2950" x1="0.000312237" y1="32.0011" x2="22.4799" y2="32.0011" gradientUnits="userSpaceOnUse">
<stop stop-color="#3D54CE"/>
<stop offset="1" stop-color="#35CACF"/>
</linearGradient>
<linearGradient id="paint1_linear_1603_2950" x1="11.0368" y1="32.0011" x2="37.6653" y2="32.0011" gradientUnits="userSpaceOnUse">
<stop stop-color="#13457D"/>
<stop offset="1" stop-color="#279698"/>
</linearGradient>
<linearGradient id="paint2_linear_1603_2950" x1="-0.000802379" y1="15.999" x2="22.4965" y2="15.999" gradientUnits="userSpaceOnUse">
<stop stop-color="#090086"/>
<stop offset="1" stop-color="#2F96A9"/>
</linearGradient>
<linearGradient id="paint3_linear_1603_2950" x1="11.0368" y1="15.999" x2="37.6653" y2="15.999" gradientUnits="userSpaceOnUse">
<stop stop-color="#3B62CA"/>
<stop offset="1" stop-color="#93DFE3"/>
</linearGradient>
</defs>
</svg>
