<svg width="1366" height="1024" viewBox="0 0 1366 1024" fill="none" xmlns="http://www.w3.org/2000/svg">
<rect y="-2" width="1366" height="1026" fill="#F0D7D6"/>
<mask id="mask0_1778_1909" style="mask-type:luminance" maskUnits="userSpaceOnUse" x="0" y="-2" width="1366" height="1026">
<rect y="-2" width="1366" height="1026" fill="white"/>
</mask>
<g mask="url(#mask0_1778_1909)">
<g filter="url(#filter0_f_1778_1909)">
<path fill-rule="evenodd" clip-rule="evenodd" d="M-61.0911 1098.62C-291.897 912.073 -298.071 -32.3133 19.5828 317.459C337.236 667.232 491.021 -221.191 863.39 494.191C1235.76 1209.57 1188.78 869.557 942.808 1024C696.832 1178.44 169.715 1285.16 -61.0911 1098.62Z" fill="url(#paint0_linear_1778_1909)"/>
</g>
<g filter="url(#filter1_f_1778_1909)">
<path fill-rule="evenodd" clip-rule="evenodd" d="M1367.16 -43.9724C1592.74 137.631 1492.01 568.883 1367.16 682.442C1242.31 796.001 1089.08 639.074 951.676 578.623C814.272 518.173 831.415 417.721 742.772 256.833C654.129 95.9441 190.972 76.5196 464.849 -43.9724C738.726 -164.464 1141.58 -225.576 1367.16 -43.9724Z" fill="url(#paint1_linear_1778_1909)"/>
</g>
<g filter="url(#filter2_f_1778_1909)">
<ellipse cx="398.078" cy="15.4889" rx="801.959" ry="656.407" fill="url(#paint2_radial_1778_1909)"/>
</g>
<g filter="url(#filter3_f_1778_1909)">
<path fill-rule="evenodd" clip-rule="evenodd" d="M150.875 100.6C225.152 -60.2954 -9.28484 -183.882 631.354 -183.882C1271.99 -183.882 1172 530.793 1012.02 648.577C852.049 766.361 775.266 410.732 431.735 480.686C88.2037 550.641 76.5983 261.495 150.875 100.6Z" fill="url(#paint3_radial_1778_1909)"/>
</g>
<g filter="url(#filter4_f_1778_1909)">
<path fill-rule="evenodd" clip-rule="evenodd" d="M1384.6 1053.63C1674.07 985.26 1534.28 759.511 1534.28 422.391C1534.28 252.927 1379.95 488.481 1200.04 434.05C1099.56 403.65 853.034 207.289 753.036 207.289C719.893 207.289 650.03 233.088 592.257 284.111C522.641 345.592 470.578 443.696 521.464 577.415C560.936 681.144 668.828 827.308 505.674 999.405C342.52 1171.5 1095.13 1121.99 1384.6 1053.63Z" fill="url(#paint4_radial_1778_1909)"/>
</g>
</g>
<defs>
<filter id="filter0_f_1778_1909" x="-349.702" y="84.2388" width="1607.16" height="1235.8" filterUnits="userSpaceOnUse" color-interpolation-filters="sRGB">
<feFlood flood-opacity="0" result="BackgroundImageFix"/>
<feBlend mode="normal" in="SourceGraphic" in2="BackgroundImageFix" result="shape"/>
<feGaussianBlur stdDeviation="61.1613" result="effect1_foregroundBlur_1778_1909"/>
</filter>
<filter id="filter1_f_1778_1909" x="256.931" y="-280.717" width="1366.58" height="1125.68" filterUnits="userSpaceOnUse" color-interpolation-filters="sRGB">
<feFlood flood-opacity="0" result="BackgroundImageFix"/>
<feBlend mode="normal" in="SourceGraphic" in2="BackgroundImageFix" result="shape"/>
<feGaussianBlur stdDeviation="61.1613" result="effect1_foregroundBlur_1778_1909"/>
</filter>
<filter id="filter2_f_1778_1909" x="-526.204" y="-763.241" width="1848.56" height="1557.46" filterUnits="userSpaceOnUse" color-interpolation-filters="sRGB">
<feFlood flood-opacity="0" result="BackgroundImageFix"/>
<feBlend mode="normal" in="SourceGraphic" in2="BackgroundImageFix" result="shape"/>
<feGaussianBlur stdDeviation="61.1613" result="effect1_foregroundBlur_1778_1909"/>
</filter>
<filter id="filter3_f_1778_1909" x="-8.46722" y="-306.205" width="1262.45" height="1101.22" filterUnits="userSpaceOnUse" color-interpolation-filters="sRGB">
<feFlood flood-opacity="0" result="BackgroundImageFix"/>
<feBlend mode="normal" in="SourceGraphic" in2="BackgroundImageFix" result="shape"/>
<feGaussianBlur stdDeviation="61.1613" result="effect1_foregroundBlur_1778_1909"/>
</filter>
<filter id="filter4_f_1778_1909" x="360.462" y="84.9664" width="1329.88" height="1154.05" filterUnits="userSpaceOnUse" color-interpolation-filters="sRGB">
<feFlood flood-opacity="0" result="BackgroundImageFix"/>
<feBlend mode="normal" in="SourceGraphic" in2="BackgroundImageFix" result="shape"/>
<feGaussianBlur stdDeviation="61.1613" result="effect1_foregroundBlur_1778_1909"/>
</filter>
<linearGradient id="paint0_linear_1778_1909" x1="110.861" y1="291.846" x2="-17.6747" y2="975.044" gradientUnits="userSpaceOnUse">
<stop stop-color="#2C3097" stop-opacity="0.96"/>
<stop offset="0.245" stop-color="#24268C" stop-opacity="0.65"/>
<stop offset="0.50694" stop-color="#1D1D81"/>
<stop offset="1" stop-color="#05005E"/>
</linearGradient>
<linearGradient id="paint1_linear_1778_1909" x1="990.464" y1="-191.086" x2="803.695" y2="197.961" gradientUnits="userSpaceOnUse">
<stop stop-color="#174B96"/>
<stop offset="1" stop-color="#0074C9"/>
</linearGradient>
<radialGradient id="paint2_radial_1778_1909" cx="0" cy="0" r="1" gradientUnits="userSpaceOnUse" gradientTransform="translate(398.064 15.4844) rotate(90) scale(656.405 801.956)">
<stop stop-color="#F1F4E5"/>
<stop offset="0.33997" stop-color="#F1F4E5" stop-opacity="0.46275"/>
<stop offset="1" stop-color="#F1F4E5" stop-opacity="0.01"/>
</radialGradient>
<radialGradient id="paint3_radial_1778_1909" cx="0" cy="0" r="1" gradientUnits="userSpaceOnUse" gradientTransform="translate(663.692 219.44) rotate(107.656) scale(663.483 767.213)">
<stop stop-color="#EDEDEE"/>
<stop offset="0.39816" stop-color="#DEDFE0" stop-opacity="0.52"/>
<stop offset="1" stop-color="#D6D7D8" stop-opacity="0.3"/>
</radialGradient>
<radialGradient id="paint4_radial_1778_1909" cx="0" cy="0" r="1" gradientUnits="userSpaceOnUse" gradientTransform="translate(1378.26 1015.12) rotate(-138.978) scale(1186.92 1176.32)">
<stop stop-color="#00FDF1"/>
<stop offset="0.38512" stop-color="#00FEF6" stop-opacity="0.68702"/>
<stop offset="0.8274" stop-color="#00FFF8" stop-opacity="0.17"/>
<stop offset="1" stop-color="#00FFF9" stop-opacity="0.37"/>
</radialGradient>
</defs>
</svg>
