<svg width="20" height="20" viewBox="0 0 20 20" fill="none" xmlns="http://www.w3.org/2000/svg">
<path fill-rule="evenodd" clip-rule="evenodd" d="M5.17013 19.9855C5.1105 19.9951 5.05055 20 4.9905 20H4.69872L4.59939 19.9355C4.47689 19.8561 4.37567 19.7575 4.29932 19.6408C4.21108 19.5058 4.16669 19.3515 4.16669 19.1875V0.79375C4.16669 0.643181 4.21021 0.497944 4.29101 0.36312C4.37564 0.221911 4.49487 0.111971 4.64209 0.0403296L4.72496 0H4.81712C4.91819 0 5.01005 0.00357657 5.09318 0.0109317C5.24972 0.0247827 5.39062 0.081251 5.48267 0.171886L16.1923 9.39461C16.2383 9.43941 16.2839 9.48747 16.3291 9.53876C16.4402 9.66498 16.4867 9.82323 16.4867 10C16.4867 10.1596 16.4409 10.3082 16.3457 10.4317C16.296 10.4961 16.245 10.5541 16.174 10.6221L5.50852 19.7872C5.41879 19.8908 5.30884 19.963 5.17013 19.9855ZM5.79505 2.55056V17.432L14.3965 9.99966L5.79505 2.55056Z" fill="#000048"/>
</svg>
