<svg width="10" height="10" viewBox="0 0 10 10" fill="none" xmlns="http://www.w3.org/2000/svg">
<path id="Vector" d="M9.69667 0.269508C9.40335 -0.0238179 8.92951 -0.0238179 8.63619 0.269508L4.95833 3.93984L1.28048 0.261986C0.987154 -0.0313392 0.51332 -0.0313392 0.219994 0.261986C-0.0733314 0.555312 -0.0733314 1.02915 0.219994 1.32247L3.89785 5.00033L0.219994 8.67818C-0.0733314 8.9715 -0.0733314 9.44534 0.219994 9.73866C0.51332 10.032 0.987154 10.032 1.28048 9.73866L4.95833 6.06081L8.63619 9.73866C8.92951 10.032 9.40335 10.032 9.69667 9.73866C9.99 9.44534 9.99 8.9715 9.69667 8.67818L6.01882 5.00033L9.69667 1.32247C9.98248 1.03667 9.98248 0.555312 9.69667 0.269508Z" fill="white"/>
</svg>
